<mxfile host="app.diagrams.net" agent="Mozilla/5.0 (Windows NT 10.0; Win64; x64) AppleWebKit/537.36 (KHTML, like Gecko) Chrome/135.0.0.0 Safari/537.36 Edg/135.0.0.0" version="27.1.5">
  <diagram name="Página-1" id="NrHcN9d7Zk3Z5GSx4_zh">
    <mxGraphModel grid="1" page="1" gridSize="10" guides="1" tooltips="1" connect="1" arrows="1" fold="1" pageScale="1" pageWidth="2000" pageHeight="2000" math="0" shadow="0">
      <root>
        <mxCell id="0" />
        <mxCell id="1" parent="0" />
        <mxCell id="bFJ0rk7XqRbzNw1KgApG-6" style="edgeStyle=orthogonalEdgeStyle;rounded=0;orthogonalLoop=1;jettySize=auto;html=1;endArrow=none;startFill=0;" edge="1" parent="1" source="bFJ0rk7XqRbzNw1KgApG-1" target="bFJ0rk7XqRbzNw1KgApG-2">
          <mxGeometry relative="1" as="geometry" />
        </mxCell>
        <mxCell id="bFJ0rk7XqRbzNw1KgApG-1" value="Pessoa" style="shape=umlActor;verticalLabelPosition=bottom;verticalAlign=top;html=1;outlineConnect=0;" vertex="1" parent="1">
          <mxGeometry x="80" y="80" width="30" height="60" as="geometry" />
        </mxCell>
        <mxCell id="bFJ0rk7XqRbzNw1KgApG-9" style="edgeStyle=orthogonalEdgeStyle;rounded=0;orthogonalLoop=1;jettySize=auto;html=1;endArrow=none;startFill=0;" edge="1" parent="1" source="bFJ0rk7XqRbzNw1KgApG-2" target="bFJ0rk7XqRbzNw1KgApG-3">
          <mxGeometry relative="1" as="geometry" />
        </mxCell>
        <mxCell id="bFJ0rk7XqRbzNw1KgApG-2" value=":TransacaoView" style="rounded=0;whiteSpace=wrap;html=1;" vertex="1" parent="1">
          <mxGeometry x="420" y="80" width="120" height="60" as="geometry" />
        </mxCell>
        <mxCell id="bFJ0rk7XqRbzNw1KgApG-13" style="edgeStyle=orthogonalEdgeStyle;rounded=0;orthogonalLoop=1;jettySize=auto;html=1;endArrow=none;startFill=0;" edge="1" parent="1" source="bFJ0rk7XqRbzNw1KgApG-3" target="bFJ0rk7XqRbzNw1KgApG-4">
          <mxGeometry relative="1" as="geometry" />
        </mxCell>
        <mxCell id="bFJ0rk7XqRbzNw1KgApG-3" value=":TransacaoController" style="rounded=0;whiteSpace=wrap;html=1;" vertex="1" parent="1">
          <mxGeometry x="420" y="440" width="120" height="60" as="geometry" />
        </mxCell>
        <mxCell id="bFJ0rk7XqRbzNw1KgApG-20" style="edgeStyle=orthogonalEdgeStyle;rounded=0;orthogonalLoop=1;jettySize=auto;html=1;endArrow=none;startFill=0;exitX=1;exitY=0.5;exitDx=0;exitDy=0;" edge="1" parent="1" source="bFJ0rk7XqRbzNw1KgApG-3" target="bFJ0rk7XqRbzNw1KgApG-5">
          <mxGeometry relative="1" as="geometry" />
        </mxCell>
        <mxCell id="bFJ0rk7XqRbzNw1KgApG-4" value=":TransacaoRepository" style="rounded=0;whiteSpace=wrap;html=1;" vertex="1" parent="1">
          <mxGeometry x="20" y="440" width="120" height="60" as="geometry" />
        </mxCell>
        <mxCell id="bFJ0rk7XqRbzNw1KgApG-5" value=":PessoaModel" style="rounded=0;whiteSpace=wrap;html=1;" vertex="1" parent="1">
          <mxGeometry x="820" y="440" width="120" height="60" as="geometry" />
        </mxCell>
        <mxCell id="bFJ0rk7XqRbzNw1KgApG-7" value="1. acessarTelaExtrato()" style="text;html=1;align=center;verticalAlign=middle;whiteSpace=wrap;rounded=0;" vertex="1" parent="1">
          <mxGeometry x="190" y="80" width="130" height="30" as="geometry" />
        </mxCell>
        <mxCell id="bFJ0rk7XqRbzNw1KgApG-8" value="" style="endArrow=classic;html=1;rounded=0;exitX=1;exitY=0.5;exitDx=0;exitDy=0;" edge="1" parent="1" source="bFJ0rk7XqRbzNw1KgApG-7">
          <mxGeometry width="50" height="50" relative="1" as="geometry">
            <mxPoint x="350" y="240" as="sourcePoint" />
            <mxPoint x="350" y="95" as="targetPoint" />
          </mxGeometry>
        </mxCell>
        <mxCell id="bFJ0rk7XqRbzNw1KgApG-11" value="1.1 GET/api/transacoes/por-destinatario/(pessoaId)" style="text;html=1;align=center;verticalAlign=middle;whiteSpace=wrap;rounded=0;" vertex="1" parent="1">
          <mxGeometry x="500" y="220" width="280" height="30" as="geometry" />
        </mxCell>
        <mxCell id="bFJ0rk7XqRbzNw1KgApG-12" value="" style="endArrow=classic;html=1;rounded=0;" edge="1" parent="1">
          <mxGeometry width="50" height="50" relative="1" as="geometry">
            <mxPoint x="490" y="220" as="sourcePoint" />
            <mxPoint x="490" y="250" as="targetPoint" />
          </mxGeometry>
        </mxCell>
        <mxCell id="bFJ0rk7XqRbzNw1KgApG-14" value="1.1.1 listarTransacoesComoDestinatario(pessoaId)" style="text;html=1;align=center;verticalAlign=middle;whiteSpace=wrap;rounded=0;" vertex="1" parent="1">
          <mxGeometry x="140" y="420" width="280" height="30" as="geometry" />
        </mxCell>
        <mxCell id="bFJ0rk7XqRbzNw1KgApG-16" value="" style="endArrow=classic;html=1;rounded=0;" edge="1" parent="1">
          <mxGeometry width="50" height="50" relative="1" as="geometry">
            <mxPoint x="310" y="460" as="sourcePoint" />
            <mxPoint x="260" y="460" as="targetPoint" />
          </mxGeometry>
        </mxCell>
        <mxCell id="bFJ0rk7XqRbzNw1KgApG-17" value="1.1.3 transacoes:List" style="text;html=1;align=center;verticalAlign=middle;whiteSpace=wrap;rounded=0;" vertex="1" parent="1">
          <mxGeometry x="240" y="490" width="100" height="30" as="geometry" />
        </mxCell>
        <mxCell id="bFJ0rk7XqRbzNw1KgApG-18" value="" style="endArrow=open;html=1;rounded=0;endFill=0;dashed=1;dashPattern=8 8;" edge="1" parent="1">
          <mxGeometry width="50" height="50" relative="1" as="geometry">
            <mxPoint x="700" y="480" as="sourcePoint" />
            <mxPoint x="660" y="480" as="targetPoint" />
          </mxGeometry>
        </mxCell>
        <mxCell id="bFJ0rk7XqRbzNw1KgApG-26" value="1.1.5 transações:List &amp;amp; saldoAtual:Float" style="text;html=1;align=center;verticalAlign=middle;whiteSpace=wrap;rounded=0;" vertex="1" parent="1">
          <mxGeometry x="270" y="220" width="190" height="30" as="geometry" />
        </mxCell>
        <mxCell id="bFJ0rk7XqRbzNw1KgApG-27" value="" style="endArrow=open;html=1;rounded=0;endFill=0;dashed=1;dashPattern=8 8;" edge="1" parent="1">
          <mxGeometry width="50" height="50" relative="1" as="geometry">
            <mxPoint x="470" y="250" as="sourcePoint" />
            <mxPoint x="470" y="220" as="targetPoint" />
          </mxGeometry>
        </mxCell>
        <mxCell id="bFJ0rk7XqRbzNw1KgApG-28" value="1.1.4 saldoAtual:Float" style="text;html=1;align=center;verticalAlign=middle;whiteSpace=wrap;rounded=0;" vertex="1" parent="1">
          <mxGeometry x="640" y="490" width="90" height="30" as="geometry" />
        </mxCell>
        <mxCell id="bFJ0rk7XqRbzNw1KgApG-29" value="" style="endArrow=open;html=1;rounded=0;endFill=0;dashed=1;dashPattern=8 8;" edge="1" parent="1">
          <mxGeometry width="50" height="50" relative="1" as="geometry">
            <mxPoint x="260" y="480" as="sourcePoint" />
            <mxPoint x="320" y="480" as="targetPoint" />
          </mxGeometry>
        </mxCell>
        <mxCell id="bFJ0rk7XqRbzNw1KgApG-30" value="1.1.6 exibirExtrato(saldoAtual:Float, transacoes:List)" style="text;html=1;align=center;verticalAlign=middle;whiteSpace=wrap;rounded=0;" vertex="1" parent="1">
          <mxGeometry x="170" y="110" width="230" height="30" as="geometry" />
        </mxCell>
        <mxCell id="bFJ0rk7XqRbzNw1KgApG-31" value="" style="endArrow=open;html=1;rounded=0;endFill=0;dashed=1;dashPattern=8 8;" edge="1" parent="1">
          <mxGeometry width="50" height="50" relative="1" as="geometry">
            <mxPoint x="170" y="124.72" as="sourcePoint" />
            <mxPoint x="140" y="124.72" as="targetPoint" />
          </mxGeometry>
        </mxCell>
        <mxCell id="bFJ0rk7XqRbzNw1KgApG-32" value="" style="endArrow=classic;html=1;rounded=0;" edge="1" parent="1">
          <mxGeometry width="50" height="50" relative="1" as="geometry">
            <mxPoint x="660" y="460" as="sourcePoint" />
            <mxPoint x="700" y="460" as="targetPoint" />
          </mxGeometry>
        </mxCell>
        <mxCell id="bFJ0rk7XqRbzNw1KgApG-33" value="1.1.2 getSaldo()" style="text;html=1;align=center;verticalAlign=middle;whiteSpace=wrap;rounded=0;" vertex="1" parent="1">
          <mxGeometry x="630" y="420" width="90" height="30" as="geometry" />
        </mxCell>
      </root>
    </mxGraphModel>
  </diagram>
</mxfile>
